# xmcd CD database file
#
# Track frame offsets:
#	150
#	17229
#	36120
#	54635
#	74081
#	88493
#	106418
#	129208
#	143174
#	165505
#
# Disc length: 2457 seconds
#
# Revision: 0
# Processed by: cddbd v1.5.1PL2 Copyright (c) Steve Scherf et al.
# Submitted via: Feurio! 1.68 - http://www.feurio.com
#
DISCID=8d09970a
DTITLE=Sandra - Ten On One
DYEAR=1987
DGENRE=
TTITLE0=Everlasting Love
TTITLE1=Hi! Hi! Hi!
TTITLE2=Stop For A Minute
TTITLE3=Innocent Love
TTITLE4=Little Girl
TTITLE5=Maria Magdalena
TTITLE6=In The Heat Of The Night
TTITLE7=Midnight Man
TTITLE8=Don't Cry (The Breakup of The World)
TTITLE9=Loreen
EXTD=
EXTT0=
EXTT1=
EXTT2=
EXTT3=
EXTT4=
EXTT5=
EXTT6=
EXTT7=
EXTT8=
EXTT9=
PLAYORDER=
